<svg width="86" height="18" viewBox="0 0 86 18" fill="none" xmlns="http://www.w3.org/2000/svg">
<path fill-rule="evenodd" clip-rule="evenodd" d="M11.6983 11.4875V1H15.3915V17.0825H14.0065H11.6983H11.633L8.18068 13.2237L4.75844 17.0825H4.69321H2.38495H1V15.9685V15.8581V1H4.69321V11.4725L8.18068 7.33265L11.6983 11.4875ZM29.5017 12.6216C29.5017 13.0481 29.8479 13.3893 30.2694 13.3893H39.8236L38.3333 17.0825H30.2544C27.8006 17.0825 25.8135 15.0954 25.8135 12.6416V5.44088C25.8135 2.98711 27.8006 1 30.2544 1H39.8236V4.68819H30.2694C29.8429 4.68819 29.5017 5.03443 29.5017 5.45594V12.6216ZM68.8172 10.6696C69.9011 9.58571 70.5033 8.21079 70.5033 6.79573C70.5033 3.71973 67.5879 1.01505 64.271 1H60.6029H58.7513H56.9097V13.8008L58.2394 17.0875H60.6029V12.5915H64.2258H64.2459C64.261 12.5915 64.2748 12.5902 64.2886 12.5889C64.3024 12.5877 64.3162 12.5864 64.3312 12.5864L66.1477 17.0775H70.132L67.8588 11.4524C68.2 11.2216 68.5212 10.9606 68.8172 10.6696ZM60.6029 4.68819H64.2559C65.5205 4.69321 66.8101 5.75199 66.8101 6.79071C66.8101 7.36777 66.4337 7.82441 66.2129 8.05021C65.6911 8.57208 64.9384 8.89323 64.2459 8.89323H64.2359H60.5979V4.68819H60.6029ZM25.3771 1H16.0889V4.69321H25.3771V1ZM25.3771 13.3896H16.0889V17.0829H25.3771V13.3896ZM16.0889 7.19238H24.0875V10.8856H16.0889V7.19238ZM79.9524 17.0825H71.5674V13.3893H80.0176C80.5997 13.3893 81.1467 13.0079 81.2771 12.4409C81.4578 11.6531 80.8506 10.9054 80.0778 10.9054H75.8828C73.1681 10.9054 70.9502 8.68749 70.9502 5.97278V5.9226C70.9502 3.20288 73.1531 1 75.8728 1H84.5388V4.69321H75.8728C75.1954 4.69321 74.6434 5.24518 74.6434 5.9226C74.6434 6.63013 75.2205 7.21222 75.933 7.21222H80.0778C82.8628 7.21222 85.1159 9.56563 84.9954 12.3757C84.88 15.0302 82.6119 17.0825 79.9524 17.0825Z" fill="#0A0F2D"/>
<path d="M46.3723 1L39.874 17.0825H43.8533L48.3945 5.84733L52.9357 17.0825H56.92L50.4167 1H46.3723Z" fill="#0AEB7D"/>
</svg>
